<svg width="57" height="57" viewBox="0 0 57 57" fill="none" xmlns="http://www.w3.org/2000/svg">
<path d="M56.35 34.2328V56.3499H54.2857L54.2847 56.3499C43.9615 56.366 33.855 53.389 25.189 47.7794L25.1889 47.7794C18.7985 43.6437 13.3563 38.2015 9.2206 31.8111L9.22057 31.811C3.61099 23.145 0.634 13.0385 0.650065 2.71529V2.71428V0.65H22.7672L26.6128 17.9513L21.8166 22.7475L21.4463 23.1177L21.7292 23.5583C24.7468 28.2578 28.7417 32.2517 33.4418 35.2681L33.8822 35.5508L34.2524 35.1808L39.0486 30.3872L56.35 34.2328ZM5.50192 4.77856H4.81593L4.85286 5.46355C5.31547 14.0454 8.01724 22.3565 12.6893 29.5699C16.5076 35.4688 21.5314 40.4925 27.4303 44.3108C34.6436 48.9829 42.9547 51.6847 51.5365 52.1471L52.2214 52.1841V51.4981V38.0651V37.5436L51.7123 37.4306L40.7114 34.9877L40.363 34.9103L40.1107 35.1627L34.5602 40.7158L33.1913 39.9375L33.1912 39.9374C26.4604 36.1121 20.8879 30.5396 17.0626 23.8088L17.0625 23.8087L16.2842 22.4398L21.8373 16.8893L22.0897 16.637L22.0123 16.2886L19.5694 5.28766L19.4564 4.77856H18.9349H5.50192Z" stroke="white" stroke-opacity="0.54" stroke-width="1.3"/>
</svg>
