<svg width="57" height="46" viewBox="0 0 57 46" fill="none" xmlns="http://www.w3.org/2000/svg">
<path d="M4.82512 4.13671L4.34568 4.56915L4.88432 4.92513L28.2243 20.3505L28.5 20.5327L28.7757 20.3505L52.1157 4.92513L52.6543 4.56915L52.1749 4.13671C51.0612 3.1322 49.6212 2.56667 48 2.56667H9C7.37879 2.56667 5.93882 3.1322 4.82512 4.13671ZM3.66634 6.5753L3.13329 6.2218L2.91892 6.82442C2.6618 7.54721 2.5 8.3705 2.5 9.2V36.8C2.5 38.5558 3.18221 40.2418 4.39994 41.4866C5.61804 42.7317 7.2725 43.4333 9 43.4333H48C49.7275 43.4333 51.382 42.7317 52.6001 41.4866C53.8178 40.2418 54.5 38.5558 54.5 36.8V9.2C54.5 8.3705 54.3382 7.54721 54.0811 6.82442L53.8667 6.2218L53.3337 6.5753L28.5 23.044L3.66634 6.5753ZM9 0.5H48C50.2508 0.5 52.4116 1.41387 54.0065 3.04426C55.6019 4.67503 56.5 6.88911 56.5 9.2V36.8C56.5 39.1109 55.6019 41.325 54.0065 42.9557C52.4116 44.5861 50.2508 45.5 48 45.5H9C6.74925 45.5 4.5884 44.5861 2.99346 42.9557C1.39814 41.325 0.5 39.1109 0.5 36.8V9.2C0.5 6.88911 1.39814 4.67503 2.99346 3.04426C4.5884 1.41387 6.74925 0.5 9 0.5Z" stroke="white" stroke-opacity="0.54"/>
</svg>
