<svg width="44" height="42" viewBox="0 0 44 42" fill="none" xmlns="http://www.w3.org/2000/svg">
<g clip-path="url(#clip0_202_4114)">
<path d="M22 0.476562C9.84984 0.476562 0 9.65103 0 20.9681C0 30.5778 7.10336 38.6416 16.6857 40.8563V27.2303H12.1493V20.9681H16.6857V18.2698C16.6857 11.2953 20.0746 8.06253 27.4261 8.06253C28.82 8.06253 31.225 8.31744 32.2089 8.57153V14.2477C31.6897 14.1969 30.7877 14.1715 29.6674 14.1715C26.0603 14.1715 24.6664 15.4444 24.6664 18.7534V20.9681H31.8525L30.6178 27.2303H24.6664V41.3096C35.5599 40.0842 44.0009 31.445 44.0009 20.9681C44 9.65103 34.1502 0.476562 22 0.476562Z" fill="white"/>
</g>
<defs>
<clipPath id="clip0_202_4114">
<rect width="44" height="40.9831" fill="white" transform="translate(0 0.476562)"/>
</clipPath>
</defs>
</svg>
