<svg width="18" height="32" viewBox="0 0 18 32" fill="none" xmlns="http://www.w3.org/2000/svg">
<path d="M9.68571 12.4444V13.0444H10.2857H17.2382L16.6703 15.4H10.2857H9.68571V16V31.4H7.45714V16V15.4H6.85714H0.6V13.0444H6.85714H7.45714V12.4444V9.11644C7.45714 5.99322 7.77114 4.95123 8.30606 3.91191L8.30698 3.91012C8.83809 2.86964 9.65668 2.02241 10.6533 1.4753L10.6551 1.47428C11.6483 0.924542 12.6427 0.6 15.648 0.6C16.3053 0.6 16.8887 0.650193 17.4 0.746353V2.95556H15.648C13.3779 2.95556 12.5457 3.08744 11.6929 3.55913C11.0777 3.89309 10.5795 4.41215 10.2619 5.04331C9.81291 5.91451 9.68571 6.76468 9.68571 9.11644V12.4444Z" stroke="white" stroke-opacity="0.54" stroke-width="1.2"/>
</svg>
