<svg width="34" height="34" viewBox="0 0 34 34" fill="none" xmlns="http://www.w3.org/2000/svg">
<path d="M24.3788 1H9.62123C4.8594 1 1 4.86009 1 9.62191V24.3781C1 29.1399 4.86009 33 9.62191 33H24.3781C29.1399 33 33 29.1399 33 24.3781V9.62191C33 4.86009 29.1406 1 24.3788 1Z" stroke="white" stroke-opacity="0.54" stroke-width="1.2" stroke-miterlimit="10"/>
<path d="M16.9999 24.7948C21.3049 24.7948 24.7948 21.3049 24.7948 16.9999C24.7948 12.695 21.3049 9.20508 16.9999 9.20508C12.695 9.20508 9.20508 12.695 9.20508 16.9999C9.20508 21.3049 12.695 24.7948 16.9999 24.7948Z" stroke="white" stroke-opacity="0.54" stroke-width="1.2" stroke-miterlimit="10"/>
<path d="M26.0257 9.20507C26.7054 9.20507 27.2565 8.65404 27.2565 7.9743C27.2565 7.29456 26.7054 6.74353 26.0257 6.74353C25.346 6.74353 24.7949 7.29456 24.7949 7.9743C24.7949 8.65404 25.346 9.20507 26.0257 9.20507Z" fill="white" fill-opacity="0.54"/>
</svg>
