<svg width="44" height="42" viewBox="0 0 44 42" fill="none" xmlns="http://www.w3.org/2000/svg">
<g clip-path="url(#clip0_202_4112)">
<path d="M22 4.16664C27.8781 4.16664 28.5742 4.19065 30.8859 4.28671C33.0344 4.37475 34.1945 4.71094 34.968 4.9911C35.9906 5.35931 36.7297 5.80756 37.4945 6.51996C38.268 7.24037 38.7406 7.92075 39.1359 8.87329C39.4367 9.59369 39.7977 10.6823 39.8922 12.6754C39.9953 14.8366 40.0211 15.485 40.0211 20.9521C40.0211 26.4272 39.9953 27.0755 39.8922 29.2287C39.7977 31.2299 39.4367 32.3105 39.1359 33.0309C38.7406 33.9834 38.2594 34.6718 37.4945 35.3842C36.7211 36.1046 35.9906 36.5449 34.968 36.9131C34.1945 37.1932 33.0258 37.5294 30.8859 37.6175C28.5656 37.7135 27.8695 37.7375 22 37.7375C16.1219 37.7375 15.4258 37.7135 13.1141 37.6175C10.9656 37.5294 9.80547 37.1932 9.03203 36.9131C8.00938 36.5449 7.27031 36.0966 6.50547 35.3842C5.73203 34.6638 5.25937 33.9834 4.86406 33.0309C4.56328 32.3105 4.20234 31.2219 4.10781 29.2287C4.00469 27.0675 3.97891 26.4192 3.97891 20.9521C3.97891 15.477 4.00469 14.8286 4.10781 12.6754C4.20234 10.6743 4.56328 9.59369 4.86406 8.87329C5.25937 7.92075 5.74062 7.23236 6.50547 6.51996C7.27891 5.79956 8.00938 5.35931 9.03203 4.9911C9.80547 4.71094 10.9742 4.37475 13.1141 4.28671C15.4258 4.19065 16.1219 4.16664 22 4.16664ZM22 0.476562C16.0273 0.476562 15.2797 0.500576 12.9336 0.59663C10.5961 0.692684 8.98906 1.04488 7.59688 1.54917C6.14453 2.07746 4.91563 2.77385 3.69531 3.9185C2.46641 5.05514 1.71875 6.19978 1.15156 7.54454C0.610156 8.84927 0.232031 10.3381 0.128906 12.5153C0.0257813 14.7086 0 15.405 0 20.9681C0 26.5312 0.0257813 27.2276 0.128906 29.4128C0.232031 31.5901 0.610156 33.0869 1.15156 34.3836C1.71875 35.7364 2.46641 36.881 3.69531 38.0177C4.91563 39.1543 6.14453 39.8587 7.58828 40.379C8.98906 40.8833 10.5875 41.2355 12.925 41.3315C15.2711 41.4276 16.0187 41.4516 21.9914 41.4516C27.9641 41.4516 28.7117 41.4276 31.0578 41.3315C33.3953 41.2355 35.0023 40.8833 36.3945 40.379C37.8383 39.8587 39.0672 39.1543 40.2875 38.0177C41.5078 36.881 42.2641 35.7364 42.8227 34.3916C43.3641 33.0869 43.7422 31.5981 43.8453 29.4208C43.9484 27.2356 43.9742 26.5392 43.9742 20.9761C43.9742 15.413 43.9484 14.7166 43.8453 12.5313C43.7422 10.3541 43.3641 8.85728 42.8227 7.56055C42.2812 6.19978 41.5336 5.05514 40.3047 3.9185C39.0844 2.78186 37.8555 2.07746 36.4117 1.55717C35.0109 1.05289 33.4125 0.700689 31.075 0.604635C28.7203 0.500576 27.9727 0.476562 22 0.476562Z" fill="white"/>
<path d="M22 10.4424C15.7609 10.4424 10.6992 15.157 10.6992 20.9683C10.6992 26.7796 15.7609 31.4942 22 31.4942C28.2391 31.4942 33.3008 26.7796 33.3008 20.9683C33.3008 15.157 28.2391 10.4424 22 10.4424ZM22 27.7961C17.9523 27.7961 14.6695 24.7384 14.6695 20.9683C14.6695 17.1982 17.9523 14.1405 22 14.1405C26.0477 14.1405 29.3305 17.1982 29.3305 20.9683C29.3305 24.7384 26.0477 27.7961 22 27.7961Z" fill="white"/>
<path d="M36.3859 10.0257C36.3859 11.3865 35.2 12.4831 33.7477 12.4831C32.2867 12.4831 31.1094 11.3785 31.1094 10.0257C31.1094 8.66498 32.2953 7.56836 33.7477 7.56836C35.2 7.56836 36.3859 8.67298 36.3859 10.0257Z" fill="white"/>
</g>
<defs>
<clipPath id="clip0_202_4112">
<rect width="44" height="40.9831" fill="white" transform="translate(0 0.476562)"/>
</clipPath>
</defs>
</svg>
