<svg width="47" height="67" viewBox="0 0 47 67" fill="none" xmlns="http://www.w3.org/2000/svg">
<path d="M17.1062 29.8321C18.8022 31.5245 21.1021 32.475 23.5 32.475C24.6873 32.475 25.8631 32.2416 26.9601 31.7882C28.0571 31.3348 29.054 30.6701 29.8938 29.8321C30.7335 28.9941 31.3998 27.9992 31.8543 26.9042C32.3089 25.8091 32.5429 24.6354 32.5429 23.45C32.5429 21.056 31.5898 18.7603 29.8938 17.0679C28.1978 15.3755 25.8979 14.425 23.5 14.425C21.1021 14.425 18.8022 15.3755 17.1062 17.0679C15.4102 18.7603 14.4571 21.056 14.4571 23.45C14.4571 25.844 15.4102 28.1397 17.1062 29.8321ZM23.5 66.0204C23.3564 65.8568 23.1829 65.6577 22.9822 65.4253C22.3433 64.6853 21.4295 63.6073 20.3324 62.2584C18.1377 59.5599 15.2124 55.7807 12.2885 51.4562C9.36326 47.1299 6.44742 42.2696 4.26486 37.4082C2.07846 32.5382 0.65 27.7151 0.65 23.45C0.65 17.4035 3.05707 11.6044 7.34212 7.32845C11.6272 3.05247 17.4394 0.65 23.5 0.65C29.5606 0.65 35.3728 3.05247 39.6579 7.32845C43.9429 11.6044 46.35 17.4035 46.35 23.45C46.35 27.7151 44.9215 32.5382 42.7351 37.4082C40.5526 42.2696 37.6367 47.1299 34.7115 51.4562C31.7876 55.7807 28.8623 59.5599 26.6676 62.2584C25.5705 63.6073 24.6567 64.6853 24.0178 65.4253C23.8171 65.6577 23.6436 65.8568 23.5 66.0204Z" stroke="white" stroke-opacity="0.54" stroke-width="1.3"/>
</svg>
