<svg width="44" height="42" viewBox="0 0 44 42" fill="none" xmlns="http://www.w3.org/2000/svg">
<path d="M43.8409 30.2877C43.5376 29.5132 42.9533 29.0946 42.2904 28.7597C42.1668 28.6969 42.0544 28.6341 41.9533 28.5923C41.7511 28.4981 41.5488 28.4039 41.3466 28.3097C39.2792 27.2841 37.6613 26.0073 36.5489 24.4794C36.2343 24.0503 35.9534 23.5898 35.7287 23.1189C35.6276 22.8677 35.6388 22.7212 35.7062 22.5852C35.7737 22.4805 35.8636 22.3968 35.9759 22.3235C36.3355 22.1038 36.695 21.884 36.9422 21.7375C37.3804 21.4654 37.7399 21.2561 37.9646 21.1096C38.8073 20.5549 39.4028 19.9688 39.7736 19.3095C40.3017 18.3886 40.3691 17.3106 39.9646 16.3374C39.4028 14.9559 38.0096 14.1082 36.313 14.1082C35.9534 14.1082 35.6051 14.1396 35.2456 14.2129C35.1557 14.2338 35.0546 14.2548 34.9647 14.2757C34.9759 13.3338 34.9535 12.3396 34.8636 11.3559C34.549 7.91275 33.2456 6.11272 31.8973 4.67896C31.0322 3.77894 30.021 3.01497 28.8862 2.41845C26.8412 1.33005 24.5154 0.775391 21.9874 0.775391C19.4594 0.775391 17.1448 1.33005 15.0999 2.41845C13.9651 3.01497 12.9539 3.77894 12.0887 4.67896C10.7404 6.11272 9.44831 7.92322 9.12248 11.3559C9.03259 12.3396 9.01012 13.3338 9.02135 14.2757C8.93147 14.2548 8.84158 14.2338 8.74046 14.2129C8.39215 14.1396 8.03261 14.1082 7.6843 14.1082C5.9877 14.1082 4.59447 14.9664 4.03268 16.3374C3.6282 17.3106 3.69561 18.3886 4.22369 19.3095C4.59447 19.9688 5.18996 20.5549 6.03265 21.1096C6.25736 21.2561 6.60567 21.4654 7.0551 21.7375C7.29105 21.884 7.63936 22.0933 7.98766 22.3026C8.11126 22.3759 8.21238 22.47 8.29103 22.5852C8.35844 22.7212 8.36968 22.8677 8.25732 23.1398C8.03261 23.6003 7.76295 24.0503 7.44835 24.4689C6.35848 25.955 4.78548 27.2213 2.78552 28.2365C1.72936 28.7597 0.628252 29.1051 0.15635 30.2877C-0.191958 31.1772 0.0327571 32.1819 0.920381 33.04C1.24622 33.354 1.62823 33.6261 2.04396 33.8354C2.90911 34.275 3.83044 34.6203 4.79671 34.861C4.99896 34.9133 5.17873 34.9866 5.34726 35.0913C5.6731 35.3529 5.62816 35.7506 6.05512 36.3366C6.2686 36.6401 6.54949 36.9018 6.86409 37.1111C7.77419 37.6971 8.79664 37.7285 9.87527 37.7704C10.8528 37.8018 11.9539 37.8436 13.2235 38.2309C13.7516 38.3878 14.2909 38.7018 14.9201 39.0681C16.4369 39.9367 18.5043 41.1193 21.9762 41.1193C25.448 41.1193 27.5266 39.9262 29.0547 39.0576C29.6839 38.7018 30.2232 38.3878 30.7288 38.2309C31.9872 37.8436 33.0996 37.8018 34.0771 37.7704C35.1557 37.7285 36.1782 37.6971 37.0882 37.1111C37.4703 36.8599 37.7849 36.5459 38.0096 36.1692C38.3242 35.6773 38.3129 35.332 38.6051 35.0913C38.7624 34.9866 38.9421 34.9133 39.1219 34.8715C40.0882 34.6308 41.032 34.2854 41.9084 33.8354C42.3466 33.6156 42.7511 33.3226 43.0881 32.9773L43.0994 32.9668C43.9758 32.1296 44.1892 31.1458 43.8409 30.2877ZM40.7623 31.8261C38.886 32.7889 37.6276 32.6842 36.6613 33.2703C35.8298 33.7622 36.3242 34.8296 35.7287 35.2168C34.9872 35.6878 32.8074 35.1854 29.9985 36.0541C27.6727 36.7657 26.2008 38.8274 22.0211 38.8274C17.8414 38.8274 16.4032 36.7762 14.0437 36.0541C11.2348 35.1854 9.05506 35.6982 8.3135 35.2168C7.71801 34.8296 8.20114 33.7622 7.38094 33.2703C6.40343 32.6842 5.15626 32.7889 3.27989 31.8261C2.07766 31.2086 2.76304 30.8319 3.15629 30.6539C9.96516 27.5876 11.055 22.8468 11.1 22.491C11.1561 22.0619 11.2236 21.727 10.718 21.2979C10.2348 20.8793 8.07755 19.6339 7.47082 19.2467C6.48208 18.5979 6.04388 17.9595 6.36972 17.1641C6.59443 16.6199 7.14498 16.4106 7.71801 16.4106C7.89778 16.4106 8.07755 16.4315 8.25732 16.4629C9.34719 16.6827 10.4034 17.185 11.0101 17.3316C11.0887 17.3525 11.1561 17.363 11.2348 17.363C11.5606 17.363 11.673 17.206 11.6505 16.8606C11.5831 15.7513 11.4146 13.5954 11.6056 11.5756C11.864 8.80231 12.819 7.42088 13.9651 6.2069C14.5156 5.62084 17.0886 3.08823 22.0211 3.08823C26.9536 3.08823 29.5266 5.61038 30.0771 6.19644C31.2232 7.41042 32.1782 8.79184 32.4366 11.5652C32.6277 13.585 32.4591 15.7408 32.3805 16.8502C32.358 17.2164 32.4704 17.3525 32.7962 17.3525C32.8748 17.3525 32.9423 17.342 33.0209 17.3211C33.6276 17.185 34.6838 16.6722 35.7737 16.4525C35.9534 16.4106 36.1332 16.4001 36.313 16.4001C36.886 16.4001 37.4366 16.6095 37.6613 17.1537C37.9871 17.949 37.5489 18.5874 36.5602 19.2363C35.9647 19.6235 33.8074 20.8689 33.313 21.2875C32.8074 21.7165 32.8748 22.0514 32.931 22.4805C32.976 22.8363 34.0658 27.5771 40.8747 30.6435C41.2792 30.8214 41.9533 31.2086 40.7623 31.8261Z" fill="white"/>
</svg>
