<svg width="34" height="34" viewBox="0 0 34 34" fill="none" xmlns="http://www.w3.org/2000/svg">
<path d="M17.0105 33C20.3203 32.9974 21.3063 31.5927 23.4848 30.6145C25.4308 29.7404 28.2148 31.0602 28.7925 28.7211C28.8669 27.5125 30.9659 27.707 32.143 26.882C33.2171 26.1306 33.3244 24.9247 32.2208 24.45C29.7239 23.3755 27.0982 21.0215 26.4634 18.4975C26.0665 16.9238 31.0282 16.4395 29.9955 13.4707C29.3858 11.7192 27.1951 12.3357 26.0033 12.7281C26.7973 6.50323 23.8048 1 17.0001 1C10.1954 1 7.20296 6.50323 7.9969 12.7281C6.80513 12.3357 4.61443 11.7192 4.0047 13.4707C2.9712 16.4395 7.9329 16.9238 7.5368 18.4975C6.90199 21.0215 4.27627 23.3755 1.77855 24.45C0.675853 24.9247 0.783096 26.1306 1.85639 26.8829C3.03433 27.7078 5.13248 27.5134 5.20773 28.7219C5.78545 31.0602 8.56944 29.7404 10.5154 30.6145C12.6948 31.5927 13.6799 32.9974 16.9897 33H17.0105Z" stroke="white" stroke-opacity="0.54" stroke-width="1.2" stroke-linecap="round" stroke-linejoin="round"/>
</svg>
