<svg width="32" height="32" viewBox="0 0 32 32" fill="none" xmlns="http://www.w3.org/2000/svg">
<path d="M18.7274 18.4669L18.8405 18.3059L31.519 0.25H22.6007L13.9511 12.5677L13.7686 12.8277L13.5588 12.5891L2.70966 0.25H0.552736L12.6812 14.0429L12.8111 14.1907L12.6981 14.3517L0.481028 31.75H9.39932L17.584 20.0916L17.7666 19.8315L17.9764 20.0701L28.2461 31.75H30.4032L18.8573 18.6147L18.7274 18.4669ZM13.7082 15.6787L13.7082 15.6786L14.9747 13.9075L14.9747 13.9074L23.5962 1.84027L23.6709 1.7356H23.7996H28.1347H28.6206L28.3382 2.13093L17.7731 16.9181L17.7731 16.9181L16.5083 18.6893L16.5083 18.6893L8.38026 30.0653L8.30548 30.17H8.17684H3.84H3.35412L3.63659 29.7747L13.7082 15.6787Z" stroke="white" stroke-opacity="0.54" stroke-width="0.5"/>
</svg>
