<svg width="29" height="29" viewBox="0 0 29 29" fill="none" xmlns="http://www.w3.org/2000/svg">
<g id="mingcute:star-fill" clip-path="url(#clip0_171_366)">
<g id="Group">
<path id="Vector" d="M13.195 3.46551C13.3279 3.23733 13.5184 3.048 13.7474 2.91641C13.9764 2.78482 14.2359 2.71558 14.5 2.71558C14.7641 2.71558 15.0235 2.78482 15.2525 2.91641C15.4815 3.048 15.672 3.23733 15.805 3.46551L19.1822 9.26309L25.7411 10.6841C25.9991 10.7402 26.2379 10.8629 26.4336 11.04C26.6294 11.2171 26.7754 11.4425 26.8569 11.6936C26.9385 11.9447 26.9528 12.2128 26.8984 12.4711C26.844 12.7295 26.7229 12.9691 26.547 13.166L22.0762 18.1697L22.7529 24.8458C22.7796 25.1086 22.7368 25.3739 22.6289 25.6151C22.521 25.8563 22.3518 26.065 22.138 26.2203C21.9242 26.3756 21.6734 26.4721 21.4107 26.5002C21.148 26.5283 20.8825 26.487 20.6407 26.3803L14.5 23.6737L8.3592 26.3803C8.11744 26.487 7.85193 26.5283 7.5892 26.5002C7.32646 26.4721 7.07569 26.3756 6.86192 26.2203C6.64815 26.065 6.47887 25.8563 6.37097 25.6151C6.26308 25.3739 6.22034 25.1086 6.24704 24.8458L6.9237 18.1697L2.45287 13.1672C2.27673 12.9703 2.15532 12.7306 2.10078 12.4721C2.04623 12.2136 2.06045 11.9453 2.14202 11.694C2.22358 11.4427 2.36964 11.2172 2.56561 11.0399C2.76158 10.8627 3.00061 10.74 3.25883 10.6841L9.81766 9.26309L13.195 3.46551Z" fill="#FFD233"/>
</g>
</g>
<defs>
<clipPath id="clip0_171_366">
<rect width="29" height="29" fill="white"/>
</clipPath>
</defs>
</svg>
